<?xml version="1.0" standalone="no"?>
<!DOCTYPE svg PUBLIC "-//W3C//DTD SVG 20010904//EN"
 "http://www.w3.org/TR/2001/REC-SVG-20010904/DTD/svg10.dtd">
<svg version="1.0" xmlns="http://www.w3.org/2000/svg"
 width="700.000000pt" height="700.000000pt" viewBox="0 0 700.000000 700.000000"
 preserveAspectRatio="xMidYMid meet">
<metadata>
Created by potrace 1.14, written by Peter Selinger 2001-2017
</metadata>
<g transform="translate(0.000000,700.000000) scale(0.100000,-0.100000)"
fill="#000000" stroke="none">
<path d="M3389 6958 c0 -24 0 -194 -1 -380 l0 -336 -37 -7 c-68 -13 -192 -67
-267 -117 -440 -294 -497 -906 -117 -1276 69 -67 178 -138 264 -172 l67 -26
-29 -69 c-16 -39 -36 -83 -43 -100 -8 -16 -67 -151 -131 -300 -64 -148 -161
-371 -215 -495 -54 -124 -155 -358 -225 -520 -70 -162 -132 -299 -136 -304 -5
-5 -157 -9 -358 -8 -264 1 -350 -2 -353 -11 -2 -7 -4 -41 -3 -77 l0 -65 316
-3 317 -2 -123 -273 c-67 -149 -134 -298 -148 -330 -15 -32 -27 -59 -27 -61 0
-3 -16 -38 -35 -79 -19 -41 -35 -77 -35 -80 0 -3 -17 -43 -39 -89 -48 -105
-158 -356 -205 -470 -58 -141 -47 -219 46 -303 23 -22 59 -49 79 -59 l36 -19
-72 -216 c-40 -119 -107 -322 -150 -451 -43 -129 -80 -241 -82 -247 -3 -8 4
-13 19 -13 21 0 37 31 167 323 80 177 162 359 183 405 21 46 38 85 38 87 0 2
16 39 36 82 20 43 53 116 74 163 21 47 54 120 74 163 20 43 36 80 36 82 0 3
13 33 29 67 57 125 199 442 356 793 58 132 116 260 127 285 11 25 29 63 38 85
10 22 29 66 44 98 l27 57 243 0 243 0 0 -112 0 -113 30 -18 c17 -9 48 -19 69
-21 42 -3 114 17 126 37 4 7 8 60 8 120 l0 107 243 0 243 0 104 -232 c57 -128
118 -264 135 -303 18 -38 76 -169 130 -290 54 -121 113 -254 132 -295 19 -41
53 -115 75 -165 21 -49 48 -108 58 -130 10 -22 66 -146 123 -275 58 -129 116
-260 130 -290 13 -30 41 -93 62 -140 37 -83 83 -184 111 -245 7 -16 42 -95 78
-175 50 -111 70 -146 86 -148 11 -2 20 1 20 7 0 9 -278 857 -297 908 -3 7 6
17 19 22 51 19 126 90 152 143 36 75 30 125 -32 268 -27 63 -54 126 -60 140
-60 137 -169 386 -189 430 -14 30 -41 91 -60 135 -19 44 -50 112 -69 152 -19
40 -34 74 -34 77 0 3 -14 35 -32 73 -17 37 -57 127 -89 198 l-58 130 315 3
314 2 0 79 0 79 -202 0 c-546 1 -516 -1 -524 25 -4 12 -37 92 -74 177 -38 85
-143 328 -234 540 -92 212 -175 403 -186 425 -10 22 -69 157 -130 300 -61 143
-118 273 -126 290 -13 27 -13 31 3 42 9 7 23 13 30 13 25 0 158 72 218 119
347 267 428 760 184 1118 -107 156 -291 287 -464 330 l-65 16 0 378 0 379
-150 0 -150 0 -1 -42z m318 -1023 c167 -56 286 -180 338 -350 27 -88 30 -170
10 -264 -21 -100 -67 -183 -145 -262 -238 -240 -630 -197 -820 89 -77 117 -99
260 -65 427 20 100 118 232 225 304 54 36 157 75 220 83 61 9 167 -4 237 -27z
m92 -2480 c142 -330 257 -601 256 -603 -2 -2 -93 -4 -204 -5 l-201 -2 0 121
c0 83 -4 126 -13 138 -17 24 -98 38 -149 27 -67 -15 -71 -25 -71 -156 0 -72
-4 -118 -10 -122 -12 -7 -386 -8 -393 0 -4 4 54 144 112 272 7 17 96 224 197
460 214 498 210 490 214 479 2 -5 120 -279 262 -609z"/>
</g>
</svg>
